<svg version="1.1" id="Layer_1" xmlns="http://www.w3.org/2000/svg" xmlns:xlink="http://www.w3.org/1999/xlink" x="0px" y="0px" width="32px" height="32px" viewBox="0 0 32 32" enable-background="new 0 0 32 32" xml:space="preserve">
  <g id="icon">
    <path d="M21.7414,1.0038c-0.7239,0.0209,-1.4266,0.1302,-2.099,0.315c-4.3137,0.8496,-7.5677,4.651,-7.5677,9.2138c0,1.1371,0.2022,2.227,0.5724,3.2358C9.862,16.5595,1.1906,25.1176,1.1906,25.1176c-0.1221,0.1238,-0.1906,0.2908,-0.1906,0.4647v4.7559c0,0.3655,0.2963,0.6619,0.6618,0.6619h5.7339c0.3655,0,0.6043,-0.2964,0.6043,-0.6619V28h2.2967c0.3655,0,0.7033,-0.2974,0.7033,-0.6629V25h2.2977c0.3655,0,0.7023,-0.1984,0.7023,-0.5638V21.2l1.0242,-1.0433l0.5004,0.5159c0.2536,0.2562,0.6605,0.2624,0.9216,0.0138c0,0,0.785,-0.8082,1.4791,-1.4554c1.094,0.4463,2.2888,0.6942,3.5432,0.6942c4.564,0,8.3656,-3.2558,9.2138,-7.5712c0.1797,-0.655,0.2878,-1.3385,0.3123,-2.0424C31.1755,5.1107,26.9356,0.8538,21.7414,1.0038zM24.1308,5.486c1.3936,0,2.5234,1.1297,2.5234,2.5234c0,1.3936,-1.1297,2.5234,-2.5234,2.5234s-2.5234,-1.1297,-2.5234,-2.5234C21.6074,6.6157,22.7371,5.486,24.1308,5.486z" fill="#EAB765"/>
  </g>
</svg>
