<svg version="1.1" id="Layer_1" xmlns="http://www.w3.org/2000/svg" xmlns:xlink="http://www.w3.org/1999/xlink" x="0px" y="0px" width="16px" height="16px" viewBox="0 0 16 16" enable-background="new 0 0 16 16" xml:space="preserve">
  <g id="main">
    <g id="icon">
      <path d="M9.492,0.05332L8.943,0.1701L8.109,0.4115L7.341,0.7869L6.655,1.282L6.062,1.884L5.577,2.579L5.214,3.353L4.986,4.193L4.907,5.084L4.985,5.973L5.212,6.81L0.1018,11.86L0.02637,11.97L0,12.1L0,14.64L0.02773,14.78L0.1033,14.89L0.2156,14.97L0.3529,15L4.2,15L4.329,14.97L4.423,14.89L4.5,14.64L4.5,12.99L6.664,12.99L6.905,12.92L6.975,12.82L7,12.69L7,10.79L7.637,10.13L5.717,7.824L5.66,7.613L5.619,7.172L5.684,6.844L5.872,6.495L6.014,6.34L6.234,6.178L6.539,6.051L6.937,6L14.84,6L14.94,5.521L15,4.966L14.99,4.453L14.93,3.953L14.81,3.471L14.66,3.009L14.21,2.155L13.6,1.414L12.87,0.8063L12.02,0.3539L11.55,0.1928L11.07,0.07871L10.58,0.01426L10.06,0.002148zM11.61,2.42L11.86,2.498L12.09,2.622L12.29,2.787L12.45,2.986L12.58,3.214L12.65,3.467L12.68,3.738L12.65,4.01L12.58,4.262L12.45,4.491L12.29,4.69L12.09,4.854L11.86,4.978L11.61,5.057L11.34,5.084L11.07,5.057L10.81,4.978L10.58,4.854L10.38,4.69L10.22,4.491L10.1,4.262L10.02,4.01L9.991,3.738L10.02,3.467L10.1,3.214L10.22,2.986L10.38,2.787L10.58,2.622L10.81,2.498L11.07,2.42L11.34,2.393zz" fill="#EAB765"/>
    </g>
    <g id="overlay">
      <path d="M15.711,7c-1.2524,0,-7.5477,0,-8.7736,0c-0.4072,0,-0.3119,0.3523,-0.3119,0.3523L10,11.4017V16h2.6v-4.6089l3.3589,-4.0388C15.9589,7.3523,16.1492,7,15.711,7zM11.9,11.3505V15.5h-0.6v-4.1495l2.042,-3.7551c0,0,1.5374,0.0107,1.5675,0.0107C14.9771,7.6061,11.9,11.3505,11.9,11.3505z" fill-rule="evenodd" fill="#797979"/>
      <path d="M11.4132,11.3505l2.0054,-3.7551c0,0,1.5534,0.0107,1.5835,0.0107c0.0675,0,-2.9935,3.7444,-2.9935,3.7444v4.1049h-0.5955V11.3505z" fill-rule="evenodd" fill="#FFFFFF"/>
    </g>
  </g>
</svg>