<svg version="1.1" id="Layer_1" xmlns="http://www.w3.org/2000/svg" xmlns:xlink="http://www.w3.org/1999/xlink" x="0px" y="0px" width="16px" height="16px" viewBox="0 0 16 16" enable-background="new 0 0 16 16" xml:space="preserve">
  <g id="main">
    <g id="icon">
      <path d="M9.492,0.05332L8.943,0.1701L8.109,0.4115L7.341,0.7869L6.655,1.282L6.062,1.884L5.577,2.579L5.214,3.353L4.986,4.193L4.907,5.084L4.985,5.973L5.212,6.81L0.1018,11.86L0.02637,11.97L0,12.1L0,14.64L0.02773,14.78L0.1033,14.89L0.2156,14.97L0.3529,15L4.2,15L4.329,14.97L4.423,14.89L4.5,14.64L4.5,12.99L6.664,12.99L6.862,12.93L6.973,12.82L6.975,12.82L7,12.69L7,10.79L8.025,9.723L8.938,9.998L9.855,10.09L9.987,9.962L9.94,9.511L9.946,9.079L10.1,8.287L10.4,7.619L10.8,7.105L11.41,6.622L12.12,6.262L12.89,6.036L13.69,5.957L14.31,6.004L14.81,6.119L14.83,6.055L14.94,5.521L15,4.966L14.99,4.453L14.93,3.953L14.81,3.471L14.66,3.009L14.21,2.155L13.6,1.414L12.87,0.8063L12.02,0.3539L11.55,0.1928L11.07,0.07871L10.58,0.01426L10.06,0.002148zM11.61,2.42L11.86,2.498L12.09,2.622L12.29,2.787L12.45,2.986L12.58,3.214L12.65,3.467L12.68,3.738L12.65,4.01L12.58,4.262L12.45,4.491L12.29,4.69L12.09,4.854L11.86,4.978L11.61,5.057L11.34,5.084L11.07,5.057L10.81,4.978L10.58,4.854L10.38,4.69L10.22,4.491L10.1,4.262L10.02,4.01L9.991,3.738L10.02,3.467L10.1,3.214L10.22,2.986L10.38,2.787L10.58,2.622L10.81,2.498L11.07,2.42L11.34,2.393zz" fill="#EAB765"/>
    </g>
    <g id="overlay">
      <path d="M7.3916,15.8123l-0.5726,-0.5565c-0.2579,-0.2502,-0.2579,-0.6559,0,-0.9061l4.2778,-4.0624c-0.3686,-1.0839,-0.0506,-2.0291,0.3985,-2.4649c0.5889,-0.5714,1.7844,-1.1359,3.1304,-0.7235c0.0157,0.0077,0.0371,0.0217,0.0572,0.0342l-1.8992,1.8429c-0.41,0.3979,-0.2709,0.6776,0.0797,1.0177c0.3506,0.3402,0.8423,0.4043,1.1049,0.1496l1.8791,-1.8234c0.013,0.0221,0.027,0.0451,0.0355,0.0636c0.3826,1.3612,-0.2512,2.48,-0.761,2.9578c-0.6418,0.6014,-1.4446,0.6832,-2.5912,0.3295l-4.2052,4.1416C8.0676,16.0626,7.6495,16.0626,7.3916,15.8123zM8.2467,15.0597c0.1835,-0.1781,0.1835,-0.4668,0,-0.6449c-0.1835,-0.1781,-0.4811,-0.1781,-0.6646,0c-0.1835,0.1781,-0.1835,0.4668,0,0.6449S8.0632,15.2378,8.2467,15.0597z" fill-rule="evenodd" fill="#797979"/>
    </g>
  </g>
</svg>
