<svg version="1.1" id="Layer_1" xmlns="http://www.w3.org/2000/svg" xmlns:xlink="http://www.w3.org/1999/xlink" x="0px" y="0px" width="16px" height="16px" viewBox="0 0 16 16" enable-background="new 0 0 16 16" xml:space="preserve">
  <g id="main">
    <g id="icon">
      <path d="M9.492,0.05332L8.943,0.1701L8.109,0.4115L7.341,0.7869L6.655,1.282L6.062,1.884L5.577,2.579L5.214,3.353L4.986,4.193L4.907,5.084L4.985,5.973L5.212,6.81L0.1018,11.86L0.02637,11.97L0,12.1L0,14.64L0.02773,14.78L0.1033,14.89L0.2156,14.97L0.3529,15L4.2,15L4.329,14.97L4.423,14.89L4.5,14.64L4.5,12.99L6.214,12.99L6.167,12.85L6.043,12.19L6,11.5L6.029,10.94L6.112,10.39L6.248,9.866L6.433,9.361L6.665,8.88L6.941,8.427L7.257,8.004L7.613,7.613L8.004,7.257L8.427,6.941L8.88,6.665L9.361,6.433L9.866,6.248L10.39,6.112L10.94,6.029L11.5,6L12.19,6.043L12.85,6.167L13.48,6.368L14.07,6.641L14.56,6.941L14.59,6.89L14.83,6.055L14.94,5.521L15,4.966L14.99,4.453L14.93,3.953L14.81,3.471L14.66,3.009L14.21,2.155L13.6,1.414L12.87,0.8063L12.02,0.3539L11.55,0.1928L11.07,0.07871L10.58,0.01426L10.06,0.002148zM11.61,2.42L11.86,2.498L12.09,2.622L12.29,2.787L12.45,2.986L12.58,3.214L12.65,3.467L12.68,3.738L12.65,4.01L12.58,4.262L12.45,4.491L12.29,4.69L12.09,4.854L11.86,4.978L11.61,5.057L11.34,5.084L11.07,5.057L10.81,4.978L10.58,4.854L10.38,4.69L10.22,4.491L10.1,4.262L10.02,4.01L9.991,3.738L10.02,3.467L10.1,3.214L10.22,2.986L10.38,2.787L10.58,2.622L10.81,2.498L11.07,2.42L11.34,2.393zz" fill="#EAB765"/>
    </g>
    <g id="overlay">
      <path d="M11.5,16c2.4853,0,4.5,-2.0147,4.5,-4.5c0,-2.4853,-2.0147,-4.5,-4.5,-4.5s-4.5,2.0147,-4.5,4.5C7,13.9853,9.0147,16,11.5,16zM11,9h1v1h-1V9zM11,11h1v3h-1V11z" fill-rule="evenodd" fill="#797979"/>
      <rect x="11" y="11" width="1" height="3" fill-rule="evenodd" fill="#FFFFFF"/>
      <rect x="11" y="9" width="1" height="1" fill-rule="evenodd" fill="#FFFFFF"/>
    </g>
  </g>
</svg>
