<svg version="1.1" id="Layer_1" xmlns="http://www.w3.org/2000/svg" xmlns:xlink="http://www.w3.org/1999/xlink" x="0px" y="0px" width="16px" height="16px" viewBox="0 0 16 16" enable-background="new 0 0 16 16" xml:space="preserve">
  <g id="main">
    <g id="icon">
      <path d="M9.492,0.05332L8.943,0.1701L8.109,0.4115L7.341,0.7869L6.655,1.282L6.062,1.884L5.577,2.579L5.214,3.353L4.986,4.193L4.907,5.084L4.985,5.973L5.212,6.81L0.1018,11.86L0.02637,11.97L0,12.1L0,14.64L0.02773,14.78L0.1033,14.89L0.2156,14.97L0.3529,15L4.2,15L4.329,14.97L4.423,14.89L4.5,14.64L4.5,12.99L6,12.99L6,8.333L6.025,8.051L6.096,7.794L6.211,7.566L6.366,7.372L6.557,7.215L6.781,7.098L7.033,7.025L7.312,7L12,7L12.87,7L13.4,7.078L13.73,7.232L14,7.48L14.2,7.68L14.21,7.657L14.59,6.89L14.83,6.055L14.94,5.521L15,4.966L14.99,4.453L14.93,3.953L14.81,3.471L14.66,3.009L14.21,2.155L13.6,1.414L12.87,0.8063L12.02,0.3539L11.55,0.1928L11.07,0.07871L10.58,0.01426L10.06,0.002148zM11.61,2.42L11.86,2.498L12.09,2.622L12.29,2.787L12.45,2.986L12.58,3.214L12.65,3.467L12.68,3.738L12.65,4.01L12.58,4.262L12.45,4.491L12.29,4.69L12.09,4.854L11.86,4.978L11.61,5.057L11.34,5.084L11.07,5.057L10.81,4.978L10.58,4.854L10.38,4.69L10.22,4.491L10.1,4.262L10.02,4.01L9.991,3.738L10.02,3.467L10.1,3.214L10.22,2.986L10.38,2.787L10.58,2.622L10.81,2.498L11.07,2.42L11.34,2.393zz" fill="#EAB765"/>
    </g>
    <g id="overlay">
      <path d="M13,8.0165c0.2,0.0189,0.1913,0.0663,0.2577,0.1358c0.5135,0.5373,2.5035,2.5097,2.607,2.6181c0.0897,0.0938,0.1192,0.2296,0.1302,0.2296h-2.8142c-0.0704,0,-0.1807,-0.0831,-0.1807,-0.1305V8.0165zM12.4,10.9152V8c-1.3,0,-5.0885,0,-5.0885,0C7.0898,8,7,8.1032,7,8.3332v7.3155c0,0.23,0.0898,0.3513,0.3115,0.3513h8.3769c0.2218,0,0.3115,-0.1212,0.3115,-0.3513c0,0,0,-2.8487,0,-4.0487h-2.8813C12.7356,11.6,12.4,11.3032,12.4,10.9152z" fill-rule="evenodd" fill="#797979"/>
    </g>
  </g>
</svg>