<svg version="1.1" id="Layer_1" xmlns="http://www.w3.org/2000/svg" xmlns:xlink="http://www.w3.org/1999/xlink" x="0px" y="0px" width="16px" height="16px" viewBox="0 0 16 16" enable-background="new 0 0 16 16" xml:space="preserve">
  <g id="main">
    <g id="icon">
      <path d="M9.492,0.05332L8.943,0.1701L8.109,0.4115L7.341,0.7869L6.655,1.282L6.062,1.884L5.577,2.579L5.214,3.353L4.986,4.193L4.907,5.084L4.985,5.973L5.212,6.81L0.1018,11.86L0.02637,11.97L0,12.1L0,14.64L0.02773,14.78L0.1033,14.89L0.2156,14.97L0.3529,15L4.2,15L4.329,14.97L4.423,14.89L4.5,14.64L4.5,12.99L6.664,12.99L6.905,12.92L6.975,12.82L7,12.69L7,10.79L7.51,10.26L7.422,9.593L7.446,9.18L7.516,8.798L7.633,8.449L7.794,8.134L7.998,7.856L8.246,7.617L8.534,7.417L8.863,7.26L9.294,7.178L9.481,7.193L9.722,7.081L9.959,7.024L10.32,7L14.54,7L14.59,6.89L14.83,6.055L14.94,5.521L15,4.966L14.99,4.453L14.93,3.953L14.81,3.471L14.66,3.009L14.21,2.155L13.6,1.414L12.87,0.8063L12.02,0.3539L11.55,0.1928L11.07,0.07871L10.58,0.01426L10.06,0.002148zM11.61,2.42L11.86,2.498L12.09,2.622L12.29,2.787L12.45,2.986L12.58,3.214L12.65,3.467L12.68,3.738L12.65,4.01L12.58,4.262L12.45,4.491L12.29,4.69L12.09,4.854L11.86,4.978L11.61,5.057L11.34,5.084L11.07,5.057L10.81,4.978L10.58,4.854L10.38,4.69L10.22,4.491L10.1,4.262L10.02,4.01L9.991,3.738L10.02,3.467L10.1,3.214L10.22,2.986L10.38,2.787L10.58,2.622L10.81,2.498L11.07,2.42L11.34,2.393zz" fill="#EAB765"/>
    </g>
    <g id="overlay">
      <path d="M9.8995,14.1794c0,0.0346,-0.1579,0.817,-0.8595,1.3293c-0.081,0.0822,-0.117,0.0758,-0.217,0.0148c-0.6655,-0.438,-0.8089,-1.2676,-0.8189,-1.3144c-0.018,-0.0839,0.0232,-0.1669,0.1101,-0.2038c0.0212,-0.009,0.0443,-0.0054,0.0673,-0.0054h1.5379C9.9183,14,9.8995,14.0295,9.8995,14.1794zM10.1945,8.3015c0.5241,0.472,0.7288,1.0497,0.7305,1.0581c0.0168,0.0849,0.0874,0.1404,0.1692,0.1404h4.7102c0.0212,0,0.0427,0.0026,0.0625,-0.0057c0.0819,-0.0342,0.1232,-0.1176,0.11,-0.2004C15.9662,9.2277,15.6522,8,14.5781,8h-4.2562C9.9075,8,9.9248,8.0586,10.1945,8.3015zM16,14.1571C16,15.8192,14.6696,16,14.6123,16c-0.0251,0,-3.4455,0,-4.5586,0c-0.1558,0,-0.5989,-0.0229,-0.6846,-0.1101c-0.0322,-0.0328,0.0938,-0.1186,0.2221,-0.2329c0.0004,-0.0003,0.0008,-0.0003,0.0012,-0.0006c0.141,-0.1274,0.6505,-0.637,0.7856,-1.459c0.0718,-0.6367,-0.5153,-1.4682,-1.0135,-2.3276c-0.4846,-0.836,-0.9424,-1.6256,-0.9424,-2.2769c0,-0.9941,0.5033,-1.2843,0.8044,-1.4019c0.0568,-0.0222,0.1224,-0.0163,0.1706,0.0214c0.6586,0.5145,0.9141,0.8893,1.1294,1.507c0.039,0.1118,0.1296,0.2806,0.246,0.2806h3.4049c0.0844,0,0.1571,0.0741,0.1782,0.1573c0.1467,0.5777,0.4867,1.4173,0.8156,2.0672C15.5579,12.9886,15.9967,13.6568,16,14.1571z" fill="#797979"/>
    </g>
  </g>
</svg>
