<svg version="1.1" id="Layer_1" xmlns="http://www.w3.org/2000/svg" xmlns:xlink="http://www.w3.org/1999/xlink" x="0px" y="0px" width="16px" height="16px" viewBox="0 0 16 16" enable-background="new 0 0 16 16" xml:space="preserve">
  <g id="main">
    <g id="icon">
      <path d="M6.875,0.02734L6.379,0.1299L5.914,0.3035L5.485,0.5424L5.099,0.8402L4.761,1.191L4.477,1.589L4.254,2.027L4.597,2.017L5.179,2.045L5.705,2.128L5.849,1.931L6.039,1.779L6.265,1.68L6.518,1.645L6.878,1.718L7.172,1.916L7.37,2.21L7.443,2.57L7.405,2.831L7.3,3.063L7.525,3.409L7.697,3.805L7.817,4.249L7.885,4.743L8.379,4.723L8.382,4.723L9.154,4.773L9.823,4.922L10.39,5.171L10.86,5.518L11.22,5.964L11.24,6L12.06,6L10.73,4.682L10.88,4.106L10.94,3.496L10.88,2.883L10.73,2.306L10.48,1.774L10.14,1.296L9.737,0.8824L9.265,0.5418L8.738,0.2838L8.164,0.118L7.394,0.001953zM14,9L14.99,9L14.93,8.843L14,7.922zz" fill="#EAB765"/>
      <path d="M3.969,3.056L3.463,3.169L3.067,3.353L2.77,3.603L2.56,3.915L2.425,4.286L2.353,4.71L2.331,5.184L2.4,5.882L2.6,6.64L2.919,7.379L3.344,8.021L3.339,8.197L3.278,8.347L3.151,8.472L2.948,8.576L1.582,9.055L0.7492,9.425L0.484,9.625L0.2938,9.864L0.1594,10.17L0.06094,10.55L0.01777,11.13L0.165,11.74L0.2844,11.88L0.5172,11.99L1.247,12.15L2.201,12.22L3.225,12.25L3.401,11.95L3.613,11.7L4.159,11.3L4.883,10.97L5.806,10.64L5.949,10.59L5.643,9.948L5.41,9.261L5.261,8.564L5.209,7.889L5.235,7.348L5.314,6.861L5.445,6.426L5.629,6.043L5.866,5.713L6.157,5.435L6.502,5.209L6.9,5.034L6.864,4.591L6.776,4.196L6.626,3.851L6.404,3.561L6.1,3.328L5.704,3.158L5.207,3.053L4.598,3.017zM7.752,5.761L7.246,5.874L6.85,6.058L6.553,6.308L6.343,6.621L6.208,6.991L6.136,7.415L6.114,7.889L6.183,8.587L6.383,9.345L6.395,9.372L6.794,9.102L7.038,9.026L7.3,9L9,9L9,7.3L9.026,7.038L9.102,6.794L9.381,6.381L9.794,6.102L9.928,6.061L9.924,6.058L9.522,5.874L9.012,5.761L8.381,5.722zM5.365,11.76L4.533,12.13L4.268,12.33L4.078,12.57L3.943,12.87L3.845,13.26L3.802,13.83L3.949,14.44L4.019,14.55L4.146,14.63L4.549,14.77L5.104,14.86L5.761,14.92L7.176,14.95L8.382,14.95L9,14.95L9,14L7.3,14L7.038,13.97L6.794,13.9L6.381,13.62L6.102,13.21L6.026,12.96L6,12.7L6,11.54zz" fill-rule="evenodd" fill="#cfcfcf"/>
    </g>
    <g id="overlay">
      <path d="M15.7,10h-2.7V7.3c0,-0.166,-0.134,-0.3,-0.3,-0.3h-2.4c-0.166,0,-0.3,0.134,-0.3,0.3v2.7H7.3c-0.166,0,-0.3,0.134,-0.3,0.3v2.4c0,0.166,0.134,0.3,0.3,0.3h2.7v2.7c0,0.166,0.134,0.3,0.3,0.3h2.4c0.166,0,0.3,-0.134,0.3,-0.3v-2.7h2.7c0.166,0,0.3,-0.134,0.3,-0.3v-2.4C16,10.134,15.866,10,15.7,10z" fill="#4EA17E"/>
    </g>
  </g>
</svg>