<svg version="1.1" id="Layer_1" xmlns="http://www.w3.org/2000/svg" xmlns:xlink="http://www.w3.org/1999/xlink" x="0px" y="0px" width="32px" height="32px" viewBox="0 0 32 32" enable-background="new 0 0 32 32" xml:space="preserve">
  <g id="main">
    <g id="icon">
      <path d="M7.337,8.105L6.401,8.315L5.669,8.655L5.373,8.871L5.12,9.117L4.731,9.694L4.481,10.38L4.348,11.16L4.308,12.04L4.34,12.66L4.436,13.33L4.592,14.02L4.806,14.73L5.074,15.42L5.395,16.09L5.765,16.72L6.181,17.28L6.171,17.61L6.059,17.88L5.825,18.11L5.448,18.31L2.923,19.19L2.048,19.54L1.383,19.88L0.8932,20.24L0.5414,20.69L0.2928,21.25L0.1109,21.96L0.03887,22.53L0.03066,23.02L0.1107,23.53L0.3029,24.15L0.3969,24.3L0.5596,24.44L1.068,24.66L1.78,24.83L2.648,24.94L4.662,25.07L6.727,25.09L7.01,24.71L7.35,24.38L7.754,24.09L8.227,23.82L9.412,23.32L10.96,22.77L12.02,22.4L11.61,21.74L11.25,21.05L10.96,20.35L10.72,19.63L10.41,18.26L10.31,17.04L10.34,16.19L10.48,15.26L10.62,14.79L10.8,14.32L11.05,13.87L11.37,13.45L11.99,12.91L12.74,12.5L12.76,12.04L12.72,11.16L12.58,10.38L12.32,9.694L11.92,9.117L11.66,8.871L11.36,8.655L10.61,8.315L9.668,8.105L8.501,8.034zM14.34,13.1L13.4,13.31L12.67,13.65L12.37,13.87L12.12,14.12L11.73,14.69L11.48,15.38L11.35,16.16L11.31,17.04L11.34,17.66L11.44,18.33L11.59,19.02L11.81,19.73L12.07,20.42L12.4,21.09L12.77,21.72L13.18,22.28L13.17,22.6L13.06,22.88L12.83,23.11L12.45,23.3L9.924,24.19L9.049,24.54L8.384,24.87L7.894,25.24L7.542,25.69L7.294,26.25L7.112,26.96L7.04,27.53L7.032,28.02L7.112,28.52L7.304,29.15L7.433,29.34L7.669,29.5L8.412,29.75L9.439,29.92L10.65,30.02L13.27,30.09L15.5,30.09L17.25,30.09L17.15,29.9L17.07,29.62L17.04,29.34L17.07,29.05L17.15,28.77L17.29,28.51L17.48,28.28L20.76,25L19.31,23.55L18.62,23.31L18.24,23.12L18.01,22.89L17.9,22.61L17.89,22.28L17.95,22.2L17.48,21.72L17.29,21.49L17.15,21.23L17.07,20.95L17.04,20.66L17.07,20.38L17.15,20.1L17.29,19.84L17.48,19.6L19.6,17.48L19.75,17.36L19.76,17.04L19.72,16.16L19.58,15.38L19.32,14.69L18.92,14.12L18.66,13.87L18.36,13.65L17.61,13.31L16.67,13.1L15.5,13.03zz" fill-rule="evenodd" fill="#cfcfcf"/>
      <path d="M14.81,0.05273L14.15,0.1373L13.52,0.2869L12.92,0.4979L12.34,0.767L11.8,1.091L11.3,1.465L10.83,1.887L10.41,2.353L10.04,2.859L9.719,3.401L9.452,3.977L9.244,4.583L9.098,5.214L9.017,5.869L9.005,6.542L9.018,6.747L10.19,6.876L11.2,7.147L12.06,7.563L12.43,7.825L12.76,8.123L13.06,8.458L13.31,8.829L13.71,9.682L13.96,10.68L14.06,11.83L14.75,11.76L15.5,11.73L15.5,11.73L16.29,11.76L17.01,11.84L17.67,11.98L18.28,12.18L18.82,12.43L19.31,12.73L19.73,13.09L20.1,13.51L20.18,13.42L21,14.15L21,15.97L21.06,16.81L21.2,16.95L21.39,17L23,17L23,18.54L23.04,18.72L23.14,18.86L23.28,18.96L23.46,19L25,19L25,20.54L25.04,20.72L25.04,20.72L28.27,17.48L28.5,17.29L28.76,17.16L29.04,17.07L29.33,17.04L29.63,17.07L29.91,17.16L30,17.2L29.97,17.04L29.87,16.89L21.85,8.957L22.02,8.418L22.14,7.86L22.22,7.285L22.25,6.696L22.22,6.105L22.14,5.528L22.02,4.968L21.84,4.428L21.37,3.414L20.73,2.503L19.95,1.714L19.05,1.065L18.05,0.573L17.51,0.392L16.95,0.257L16.23,0.1039L15.48,0.03691zM14.19,3.17L14.52,3.273L14.82,3.435L15.08,3.651L15.3,3.912L15.46,4.212L15.56,4.543L15.6,4.898L15.56,5.254L15.46,5.585L15.3,5.885L15.08,6.146L14.82,6.361L14.52,6.523L14.19,6.626L13.83,6.662L13.48,6.626L13.15,6.523L12.85,6.361L12.59,6.145L12.37,5.884L12.21,5.585L12.11,5.254L12.07,4.898L12.11,4.543L12.21,4.212L12.37,3.912L12.59,3.651L12.85,3.435L13.15,3.273L13.48,3.17L13.83,3.134zz" fill="#EAB765"/>
    </g>
    <g id="overlay">
      <path d="M31.91,29.789l-2.121,2.121c-0.195,0.195,-0.512,0.195,-0.707,0L25,27.828l-3.982,3.982c-0.195,0.195,-0.512,0.195,-0.707,0l-2.121,-2.121c-0.195,-0.195,-0.195,-0.512,0,-0.707L22.172,25l-3.982,-3.982c-0.195,-0.195,-0.195,-0.512,0,-0.707l2.121,-2.121c0.195,-0.195,0.512,-0.195,0.707,0L25,22.172l3.982,-3.982c0.195,-0.195,0.512,-0.195,0.707,0l2.121,2.121c0.195,0.195,0.195,0.512,0,0.707L27.828,25l4.082,4.082C32.106,29.277,32.106,29.594,31.91,29.789z" fill-rule="evenodd" fill="#CD4C32"/>
    </g>
  </g>
</svg>
